HIERARCHY
ROOT Hips
{
	OFFSET 0.000000 83.214638 0.000000
	CHANNELS 6 Xposition Yposition Zposition Xrotation Yrotation Zrotation
	JOINT Pelvis
	{
		OFFSET 0.000000 0.000000 0.000000
		CHANNELS 3 Xrotation Yrotation Zrotation
		JOINT LeftUpLeg
		{
			OFFSET 8.479700 -4.795502 -0.379100
			CHANNELS 3 Xrotation Yrotation Zrotation
			JOINT LeftLeg
			{
				OFFSET 0.024144 -32.555107 0.112900
				CHANNELS 3 Xrotation Yrotation Zrotation
				JOINT LeftFoot
				{
					OFFSET -0.024144 -32.638630 -3.012600
					CHANNELS 3 Xrotation Yrotation Zrotation
					JOINT LeftToeBase
					{
						OFFSET 0.970200 -13.225400 11.864200
						CHANNELS 3 Xrotation Yrotation Zrotation
						End Site
						{
							OFFSET 0.000000 12.319262 0.000000
						}
					}
					JOINT LFootTongue
					{
						OFFSET 1.142400 -1.059800 6.665200
						CHANNELS 3 Xrotation Yrotation Zrotation
						End Site
						{
							OFFSET 0.000000 12.319262 0.000000
						}
					}
				}
				JOINT LeftPantLeg
				{
					OFFSET 0.918482 -16.533964 -2.284700
					CHANNELS 3 Xrotation Yrotation Zrotation
					End Site
					{
						OFFSET 0.350399 24.744368 0.000000
					}
				}
			}
		}
		JOINT RightUpLeg
		{
			OFFSET -8.479700 -4.795502 -0.379100
			CHANNELS 3 Xrotation Yrotation Zrotation
			JOINT RightLeg
			{
				OFFSET -0.023144 -32.555092 0.112900
				CHANNELS 3 Xrotation Yrotation Zrotation
				JOINT RightFoot
				{
					OFFSET 0.023144 -32.638641 -3.012700
					CHANNELS 3 Xrotation Yrotation Zrotation
					JOINT RightToeBase
					{
						OFFSET -0.970200 -13.225400 11.864200
						CHANNELS 3 Xrotation Yrotation Zrotation
						End Site
						{
							OFFSET 0.000000 12.319244 0.000000
						}
					}
					JOINT RFootTongue
					{
						OFFSET -1.142200 -1.059800 6.665200
						CHANNELS 3 Xrotation Yrotation Zrotation
						End Site
						{
							OFFSET 0.000000 12.319243 0.000000
						}
					}
				}
				JOINT RightPantLeg
				{
					OFFSET -0.919482 -16.533978 -2.284800
					CHANNELS 3 Xrotation Yrotation Zrotation
					End Site
					{
						OFFSET -0.350400 24.744419 0.000000
					}
				}
			}
		}
	}
	JOINT Spine
	{
		OFFSET 0.000000 7.722000 1.166200
		CHANNELS 3 Xrotation Yrotation Zrotation
		JOINT Spine1
		{
			OFFSET 0.000000 12.024101 0.248800
			CHANNELS 3 Xrotation Yrotation Zrotation
			JOINT Spine2
			{
				OFFSET 0.000000 11.502998 -0.491200
				CHANNELS 3 Xrotation Yrotation Zrotation
				JOINT Neck
				{
					OFFSET 0.000000 18.430702 -3.123100
					CHANNELS 3 Xrotation Yrotation Zrotation
					JOINT Head
					{
						OFFSET 0.000000 9.051102 1.034000
						CHANNELS 3 Xrotation Yrotation Zrotation
						JOINT HairB
						{
							OFFSET 0.208400 24.786102 24.822300
							CHANNELS 3 Xrotation Yrotation Zrotation
							End Site
							{
								OFFSET 0.000000 32.263779 0.000000
							}
						}
						JOINT HairA
						{
							OFFSET -7.081100 24.428299 23.196600
							CHANNELS 3 Xrotation Yrotation Zrotation
							End Site
							{
								OFFSET 0.000000 32.263779 0.000000
							}
						}
						JOINT Hat
						{
							OFFSET 16.728800 15.048294 -15.439601
							CHANNELS 3 Xrotation Yrotation Zrotation
							End Site
							{
								OFFSET 0.000000 32.263779 0.000000
							}
						}
					}
				}
				JOINT LeftShoulder
				{
					OFFSET 6.197800 13.665199 -4.064700
					CHANNELS 3 Xrotation Yrotation Zrotation
					JOINT LeftArm
					{
						OFFSET 7.778100 -0.187103 -1.709300
						CHANNELS 3 Xrotation Yrotation Zrotation
						JOINT LeftForeArm
						{
							OFFSET 22.049376 0.000000 0.000000
							CHANNELS 3 Xrotation Yrotation Zrotation
							JOINT LeftHand
							{
								OFFSET 23.009392 0.000000 0.000000
								CHANNELS 3 Xrotation Yrotation Zrotation
								JOINT LeftHandThumb1
								{
									OFFSET 3.507191 -2.063065 3.133727
									CHANNELS 3 Xrotation Yrotation Zrotation
									JOINT LeftHandThumb2
									{
										OFFSET 3.101337 -1.790558 1.790558
										CHANNELS 3 Xrotation Yrotation Zrotation
										JOINT LeftHandThumb3
										{
											OFFSET 3.058640 -1.765907 1.765906
											CHANNELS 3 Xrotation Yrotation Zrotation
											End Site
											{
												OFFSET -0.415260 3.926476 -0.049563
											}
										}
									}
								}
								JOINT LeftHandIndex1
								{
									OFFSET 11.334419 -0.901459 3.706815
									CHANNELS 3 Xrotation Yrotation Zrotation
									JOINT LeftHandIndex2
									{
										OFFSET 3.283112 0.000000 0.000000
										CHANNELS 3 Xrotation Yrotation Zrotation
										JOINT LeftHandIndex3
										{
											OFFSET 3.323853 0.000000 0.000000
											CHANNELS 3 Xrotation Yrotation Zrotation
											End Site
											{
												OFFSET -1.135597 3.097809 0.402452
											}
										}
									}
								}
								JOINT LeftHandMiddle1
								{
									OFFSET 11.335861 0.000000 0.000000
									CHANNELS 3 Xrotation Yrotation Zrotation
									JOINT LeftHandMiddle2
									{
										OFFSET 3.410492 0.000000 0.000000
										CHANNELS 3 Xrotation Yrotation Zrotation
										JOINT LeftHandMiddle3
										{
											OFFSET 3.312172 0.000000 0.000000
											CHANNELS 3 Xrotation Yrotation Zrotation
											End Site
											{
												OFFSET -1.150200 3.080154 0.400270
											}
										}
									}
								}
								JOINT LeftHandRing1
								{
									OFFSET 11.514786 -0.013176 -3.003090
									CHANNELS 3 Xrotation Yrotation Zrotation
									JOINT LeftHandRing2
									{
										OFFSET 3.053307 0.000000 0.000000
										CHANNELS 3 Xrotation Yrotation Zrotation
										JOINT LeftHandRing3
										{
											OFFSET 3.295807 0.000000 0.000000
											CHANNELS 3 Xrotation Yrotation Zrotation
											End Site
											{
												OFFSET -1.281006 3.013344 0.375733
											}
										}
									}
								}
								JOINT LeftHandPinky1
								{
									OFFSET 10.518692 -0.960396 -5.730441
									CHANNELS 3 Xrotation Yrotation Zrotation
									JOINT LeftHandPinky2
									{
										OFFSET 2.861649 0.000000 0.000000
										CHANNELS 3 Xrotation Yrotation Zrotation
										JOINT LeftHandPinky3
										{
											OFFSET 2.863380 0.000000 0.000000
											CHANNELS 3 Xrotation Yrotation Zrotation
											End Site
											{
												OFFSET -0.843597 2.711159 0.369971
											}
										}
									}
								}
							}
							JOINT LSleeve
							{
								OFFSET 6.676277 -0.344902 -1.011730
								CHANNELS 3 Xrotation Yrotation Zrotation
								End Site
								{
									OFFSET 0.000000 14.885353 0.000000
								}
							}
						}
					}
				}
				JOINT RightShoulder
				{
					OFFSET -6.197800 13.665199 -4.064700
					CHANNELS 3 Xrotation Yrotation Zrotation
					JOINT RightArm
					{
						OFFSET -7.778100 -0.187103 -1.709300
						CHANNELS 3 Xrotation Yrotation Zrotation
						JOINT RightForeArm
						{
							OFFSET -22.049376 0.000000 0.000000
							CHANNELS 3 Xrotation Yrotation Zrotation
							JOINT RightHand
							{
								OFFSET -23.009392 0.000000 0.000000
								CHANNELS 3 Xrotation Yrotation Zrotation
								JOINT RightHandThumb1
								{
									OFFSET -3.507191 -2.063065 3.133727
									CHANNELS 3 Xrotation Yrotation Zrotation
									JOINT RightHandThumb2
									{
										OFFSET -3.101337 -1.790558 1.790558
										CHANNELS 3 Xrotation Yrotation Zrotation
										JOINT RightHandThumb3
										{
											OFFSET -3.058640 -1.765907 1.765906
											CHANNELS 3 Xrotation Yrotation Zrotation
											End Site
											{
												OFFSET 0.415260 3.926476 -0.049563
											}
										}
									}
								}
								JOINT RightHandIndex1
								{
									OFFSET -11.334419 -0.901459 3.706815
									CHANNELS 3 Xrotation Yrotation Zrotation
									JOINT RightHandIndex2
									{
										OFFSET -3.283112 0.000000 0.000000
										CHANNELS 3 Xrotation Yrotation Zrotation
										JOINT RightHandIndex3
										{
											OFFSET -3.323853 0.000000 0.000000
											CHANNELS 3 Xrotation Yrotation Zrotation
											End Site
											{
												OFFSET 1.135597 3.097809 0.402452
											}
										}
									}
								}
								JOINT RightHandMiddle1
								{
									OFFSET -11.335861 0.000000 0.000000
									CHANNELS 3 Xrotation Yrotation Zrotation
									JOINT RightHandMiddle2
									{
										OFFSET -3.410492 0.000000 0.000000
										CHANNELS 3 Xrotation Yrotation Zrotation
										JOINT RightHandMiddle3
										{
											OFFSET -3.312172 0.000000 0.000000
											CHANNELS 3 Xrotation Yrotation Zrotation
											End Site
											{
												OFFSET 1.150200 3.080154 0.400270
											}
										}
									}
								}
								JOINT RightHandRing1
								{
									OFFSET -11.514786 -0.013176 -3.003090
									CHANNELS 3 Xrotation Yrotation Zrotation
									JOINT RightHandRing2
									{
										OFFSET -3.053307 0.000000 0.000000
										CHANNELS 3 Xrotation Yrotation Zrotation
										JOINT RightHandRing3
										{
											OFFSET -3.295807 0.000000 0.000000
											CHANNELS 3 Xrotation Yrotation Zrotation
											End Site
											{
												OFFSET 1.281006 3.013344 0.375733
											}
										}
									}
								}
								JOINT RightHandPinky1
								{
									OFFSET -10.518692 -0.960396 -5.730441
									CHANNELS 3 Xrotation Yrotation Zrotation
									JOINT RightHandPinky2
									{
										OFFSET -2.861649 0.000000 0.000000
										CHANNELS 3 Xrotation Yrotation Zrotation
										JOINT RightHandPinky3
										{
											OFFSET -2.863380 0.000000 0.000000
											CHANNELS 3 Xrotation Yrotation Zrotation
											End Site
											{
												OFFSET 0.843597 2.711159 0.369971
											}
										}
									}
								}
							}
							JOINT RSleeve
							{
								OFFSET -6.676277 -0.344902 -1.011730
								CHANNELS 3 Xrotation Yrotation Zrotation
								End Site
								{
									OFFSET 0.000000 14.885353 0.000000
								}
							}
						}
					}
				}
				JOINT Backpack
				{
					OFFSET 0.000000 -2.471497 36.677502
					CHANNELS 3 Xrotation Yrotation Zrotation
					End Site
					{
						OFFSET 0.000000 20.427315 0.000000
					}
				}
				JOINT Hood
				{
					OFFSET 0.000000 18.754097 -10.431000
					CHANNELS 3 Xrotation Yrotation Zrotation
					JOINT Hood1
					{
						OFFSET 0.000000 -5.011002 -7.685901
						CHANNELS 3 Xrotation Yrotation Zrotation
						End Site
						{
							OFFSET 0.000000 9.175140 0.000000
						}
					}
				}
				JOINT LHoodieString
				{
					OFFSET 5.250500 16.397697 3.089900
					CHANNELS 3 Xrotation Yrotation Zrotation
					JOINT LHoodieString1
					{
						OFFSET 0.257700 -6.364304 3.694600
						CHANNELS 3 Xrotation Yrotation Zrotation
						JOINT LHoodieString2
						{
							OFFSET 0.000000 -9.643799 2.679100
							CHANNELS 3 Xrotation Yrotation Zrotation
							End Site
							{
								OFFSET 0.000000 10.009018 0.000000
							}
						}
					}
				}
				JOINT RHoodieString
				{
					OFFSET -5.250500 16.397697 3.089900
					CHANNELS 3 Xrotation Yrotation Zrotation
					JOINT RHoodieString1
					{
						OFFSET -0.257700 -6.364304 3.694600
						CHANNELS 3 Xrotation Yrotation Zrotation
						JOINT RHoodieString2
						{
							OFFSET 0.000000 -9.643799 2.679100
							CHANNELS 3 Xrotation Yrotation Zrotation
							End Site
							{
								OFFSET 0.000000 10.009018 0.000000
							}
						}
					}
				}
			}
			JOINT LBackpack_Strap
			{
				OFFSET 15.223200 -7.719803 -6.610900
				CHANNELS 3 Xrotation Yrotation Zrotation
				End Site
				{
					OFFSET 0.000000 16.040596 0.000000
				}
			}
			JOINT RBackpack_Strap
			{
				OFFSET -15.223000 -7.719803 -6.610900
				CHANNELS 3 Xrotation Yrotation Zrotation
				End Site
				{
					OFFSET 0.000000 16.040596 0.000000
				}
			}
		}
	}
	JOINT BoyFacialAnim_Joint
	{
		OFFSET 1.000000 -82.208099 -1.550900
		CHANNELS 3 Xrotation Yrotation Zrotation
		End Site
		{
			OFFSET 0.000000 30.012791 0.000000
		}
	}
}
MOTION
Frames: 4
Frame Time: 0.016667
2.008873 73.169487 -2.375368 21.250313 -4.594096 -27.653249 -0.000000 0.000000 0.000001 -75.286047 -7.367605 26.350591 63.552991 -8.884655 9.978478 -14.222149 -2.960286 -2.797716 0.000000 0.000001 0.000000 0.000000 0.000001 0.000000 -0.000000 0.000001 -0.000000 -36.110575 -32.547067 10.953581 39.621197 -10.838814 0.859284 -12.854991 -8.247373 8.683238 -0.000000 0.000003 -0.000000 -0.000000 0.000003 -0.000000 -0.000000 0.000002 0.000001 9.659215 1.987112 -16.126490 6.445040 2.740807 -10.688250 6.249395 2.693591 -10.811387 -0.796397 4.356716 -3.690214 -8.154886 18.426614 -3.530659 -0.000000 0.000004 0.000000 -0.000000 0.000004 0.000000 -0.000000 0.000004 0.000000 0.763384 -2.243210 16.026714 -56.139603 -44.766631 -98.210020 -0.000027 -55.603887 -0.000023 -74.109704 -27.707902 14.239165 35.234562 -17.219587 -17.236894 29.406871 28.726515 -29.411799 0.000003 -0.000004 0.000000 0.797685 3.221927 -27.804747 0.799618 3.225530 -27.838632 0.000000 0.000000 -0.000002 0.796786 3.220224 -27.788724 0.800507 3.227235 -27.854640 -0.000001 0.000001 -0.000003 0.797690 3.221917 -27.804756 0.799607 3.225524 -27.838618 -0.000001 0.000001 -0.000002 2.684980 6.814106 -27.459493 0.809059 -0.835567 -28.291875 0.000002 -0.000001 0.000003 0.000000 0.000001 0.000000 -0.201833 -4.974899 1.334801 -165.753323 118.380197 181.246883 -0.000068 71.160155 0.000066 -23.198504 1.097498 -16.760424 40.606643 -3.110559 26.124248 -37.849476 -44.265018 -46.874943 0.000002 0.000000 -0.000001 3.635325 -6.111033 61.464504 7.728640 -6.904481 96.464435 -0.000000 0.000000 0.000002 3.635330 -6.111018 61.464497 7.728607 -6.904467 96.464449 0.000002 0.000002 -0.000002 3.635329 -6.111007 61.464497 7.728603 -6.904483 96.464456 -0.000001 -0.000003 0.000002 3.635325 -6.110993 61.464497 7.728633 -6.904496 96.464449 0.000003 0.000001 -0.000003 0.000001 -0.000001 -0.000001 -0.000000 -0.000002 -0.000002 -0.000000 -0.000002 -0.000002 -0.000000 -0.000002 -0.000002 -0.000000 -0.000002 -0.000002 -0.000000 -0.000002 -0.000001 -0.000000 -0.000000 -0.000001 -0.000000 -0.000002 -0.000002 -0.000000 -0.000002 -0.000001 -0.000000 -0.000000 -0.000001 -0.000001 -0.000001 -0.000002 -0.000001 -0.000001 -0.000002 -0.000000 0.000000 0.000001 
2.033794 73.217804 -2.395046 21.047902 -4.861079 -27.290173 -0.000002 -0.000000 -0.000000 -75.081121 -6.821213 26.544721 63.442998 -8.920953 9.981167 -14.239671 -2.903154 -2.731996 -0.000000 0.000001 0.000000 -0.000000 0.000001 0.000000 -0.000000 0.000001 -0.000000 -36.179505 -32.188585 10.702671 39.608144 -10.818502 0.935093 -12.782785 -8.103990 8.614275 -0.000000 -0.000002 -0.000000 -0.000000 -0.000002 -0.000000 -0.000001 -0.000001 -0.000001 9.720257 1.952851 -16.042135 6.493367 2.713991 -10.616020 6.300751 2.667747 -10.739125 0.207074 4.314707 -3.404720 -7.207426 18.522097 -2.767397 0.000000 0.000003 0.000000 0.000000 0.000003 0.000000 0.000000 0.000003 0.000000 0.722165 -2.099710 15.969396 -55.551448 -45.310823 -97.712611 0.000013 -55.603009 0.000029 -74.614749 -26.963280 14.427164 35.234562 -17.219587 -17.236896 29.406871 28.726505 -29.411792 -0.000004 -0.000002 -0.000002 0.797685 3.221925 -27.804744 0.799619 3.225530 -27.838625 -0.000000 0.000001 -0.000002 0.796786 3.220222 -27.788719 0.800507 3.227236 -27.854637 -0.000001 -0.000001 0.000002 0.797691 3.221914 -27.804758 0.799606 3.225524 -27.838618 -0.000001 -0.000000 0.000001 2.684981 6.814103 -27.459490 0.809061 -0.835569 -28.291875 -0.000001 0.000000 -0.000000 -0.000001 -0.000000 0.000002 -0.173795 -4.568112 0.662838 -166.330392 118.064601 182.609998 0.000059 70.533943 -0.000077 -24.020037 1.292605 -16.773080 40.606636 -3.110557 26.124248 -37.849476 -44.265015 -46.874939 -0.000001 0.000000 -0.000002 3.635319 -6.111036 61.464510 7.728644 -6.904485 96.464442 0.000002 -0.000003 0.000003 3.635327 -6.111018 61.464497 7.728607 -6.904468 96.464449 0.000004 0.000002 0.000002 3.635325 -6.111008 61.464497 7.728601 -6.904477 96.464462 -0.000003 0.000000 0.000000 3.635322 -6.110993 61.464504 7.728634 -6.904494 96.464442 -0.000001 -0.000001 0.000000 0.000001 -0.000000 -0.000000 -0.000001 -0.000000 0.000001 -0.000001 -0.000000 0.000001 -0.000001 -0.000000 0.000001 -0.000001 -0.000000 0.000001 -0.000001 -0.000000 0.000001 -0.000001 0.000001 -0.000001 -0.000001 -0.000000 0.000001 -0.000001 -0.000000 0.000001 -0.000001 0.000001 -0.000001 -0.000002 0.000003 0.000001 -0.000002 0.000003 0.000001 -0.000002 -0.000000 -0.000000 
2.043003 73.263359 -2.410839 20.816077 -5.184237 -26.945644 0.000000 0.000000 0.000000 -74.840480 -6.332051 26.785671 63.357982 -8.968937 9.985225 -14.279059 -2.771688 -2.697945 -0.000000 -0.000000 -0.000000 -0.000000 -0.000000 -0.000000 0.000001 -0.000001 -0.000000 -36.205911 -31.801894 10.535415 39.587042 -10.808566 0.990026 -12.711821 -7.948703 8.542861 0.000000 -0.000003 -0.000000 0.000000 -0.000003 -0.000000 0.000001 -0.000005 0.000002 9.768126 1.920191 -15.960405 6.534459 2.691596 -10.541845 6.345200 2.646787 -10.664543 1.163589 4.299128 -3.121162 -6.113505 18.694866 -2.004228 0.000001 0.000000 -0.000001 0.000001 0.000000 -0.000001 0.000001 0.000000 -0.000001 0.658036 -1.924512 15.859508 -54.937930 -45.760013 -97.271524 0.000028 -55.535992 0.000024 -74.975499 -26.281402 14.629529 35.234566 -17.219588 -17.236894 29.406867 28.726512 -29.411799 0.000002 0.000000 -0.000001 0.797683 3.221926 -27.804744 0.799615 3.225530 -27.838625 -0.000001 0.000001 -0.000000 0.796784 3.220222 -27.788719 0.800508 3.227236 -27.854640 -0.000000 -0.000001 -0.000002 0.797689 3.221916 -27.804752 0.799607 3.225525 -27.838618 -0.000001 0.000000 -0.000000 2.684980 6.814106 -27.459493 0.809056 -0.835569 -28.291870 0.000001 0.000001 -0.000002 -0.000002 0.000000 -0.000000 -0.134095 -4.148865 0.057187 -166.688854 117.680020 183.667502 -0.000026 69.803727 0.000031 -24.844058 1.637664 -16.745395 40.606636 -3.110557 26.124248 -37.849469 -44.265018 -46.874933 -0.000000 -0.000001 -0.000001 3.635320 -6.111034 61.464504 7.728643 -6.904483 96.464449 0.000001 -0.000001 0.000005 3.635324 -6.111021 61.464497 7.728606 -6.904465 96.464449 -0.000003 -0.000000 -0.000000 3.635323 -6.111008 61.464497 7.728601 -6.904479 96.464456 -0.000000 0.000000 0.000000 3.635322 -6.110992 61.464497 7.728631 -6.904494 96.464449 -0.000000 -0.000003 0.000002 -0.000000 -0.000000 -0.000000 -0.000000 -0.000003 -0.000000 -0.000000 -0.000003 -0.000000 -0.000000 -0.000003 -0.000000 -0.000000 -0.000003 -0.000000 -0.000000 -0.000003 -0.000001 -0.000001 -0.000002 0.000001 -0.000000 -0.000003 -0.000000 -0.000000 -0.000003 -0.000001 -0.000001 -0.000002 0.000001 -0.000000 0.000001 0.000003 -0.000000 0.000001 0.000003 0.000000 0.000000 0.000000 
2.040970 73.304634 -2.430597 20.570260 -5.560879 -26.619643 -0.000001 -0.000001 0.000001 -74.580926 -5.906904 27.052774 63.293847 -9.027129 9.989818 -14.329093 -2.559992 -2.691329 0.000000 -0.000000 0.000000 0.000000 -0.000000 0.000000 -0.000000 0.000001 -0.000000 -36.213755 -31.417709 10.442739 39.560258 -10.808557 1.003754 -12.635306 -7.768086 8.476566 -0.000000 0.000002 0.000000 -0.000000 0.000002 0.000000 -0.000000 0.000001 -0.000001 9.807610 1.882799 -15.874826 6.573798 2.667611 -10.462880 6.388352 2.625526 -10.584649 2.049137 4.309117 -2.841947 -4.886929 18.949344 -1.267632 -0.000000 0.000001 -0.000003 -0.000000 0.000001 -0.000003 -0.000000 0.000001 -0.000003 0.564449 -1.708724 15.694800 -54.281422 -46.142514 -96.841352 -0.000005 -55.447933 -0.000023 -75.196572 -25.642188 14.844979 35.234562 -17.219585 -17.236898 29.406867 28.726512 -29.411792 0.000000 0.000001 -0.000005 0.797684 3.221927 -27.804747 0.799618 3.225531 -27.838632 -0.000001 -0.000000 -0.000000 0.796786 3.220223 -27.788724 0.800510 3.227236 -27.854640 -0.000001 0.000000 -0.000002 0.797689 3.221916 -27.804752 0.799609 3.225524 -27.838620 -0.000001 0.000002 -0.000000 2.684983 6.814104 -27.459493 0.809059 -0.835567 -28.291875 -0.000000 0.000001 -0.000002 0.000002 -0.000004 0.000005 -0.081810 -3.700189 -0.513611 -166.971105 117.245251 184.572284 -0.000045 69.013393 0.000042 -25.647678 2.088050 -16.706914 40.606639 -3.110554 26.124248 -37.849469 -44.265018 -46.874943 0.000000 0.000001 -0.000001 3.635322 -6.111035 61.464510 7.728642 -6.904487 96.464435 0.000002 -0.000003 0.000005 3.635331 -6.111018 61.464497 7.728605 -6.904468 96.464449 -0.000001 0.000003 -0.000003 3.635327 -6.111008 61.464497 7.728600 -6.904482 96.464462 -0.000001 -0.000001 0.000002 3.635325 -6.110993 61.464504 7.728633 -6.904493 96.464449 -0.000002 -0.000001 -0.000003 -0.000001 -0.000000 -0.000000 -0.000000 -0.000003 -0.000000 -0.000000 -0.000003 -0.000000 -0.000000 -0.000003 -0.000000 -0.000000 -0.000003 -0.000000 -0.000000 -0.000003 -0.000000 -0.000000 -0.000000 0.000001 -0.000000 -0.000003 -0.000000 -0.000000 -0.000003 -0.000000 -0.000000 -0.000000 0.000001 -0.000000 0.000001 0.000003 -0.000000 0.000001 0.000003 -0.000001 -0.000001 0.000001 
